<?xml version="1.0" standalone="no"?>
<!DOCTYPE svg PUBLIC "-//W3C//DTD SVG 20010904//EN"
 "http://www.w3.org/TR/2001/REC-SVG-20010904/DTD/svg10.dtd">
<svg version="1.0" xmlns="http://www.w3.org/2000/svg"
 width="184.000000pt" height="184.000000pt" viewBox="0 0 184.000000 184.000000"
 preserveAspectRatio="xMidYMid meet">
<metadata>
Created by potrace 1.14, written by Peter Selinger 2001-2017
</metadata>
<g transform="translate(0.000000,184.000000) scale(0.100000,-0.100000)"
fill="#000000" stroke="none">
<path d="M0 1065 l0 -775 30 0 c20 0 41 -11 68 -37 l40 -38 46 35 c41 30 46
39 46 73 0 23 -4 36 -10 32 -5 -3 -10 -1 -10 5 0 21 63 72 118 96 52 24 70 41
32 31 -26 -7 -26 8 1 26 55 39 -53 32 -141 -9 -99 -46 -150 -98 -150 -156 -1
-18 -3 -20 -9 -8 -36 60 86 170 229 206 85 21 93 30 30 36 -73 7 -90 28 -22
28 41 0 52 3 52 16 0 9 -9 18 -20 21 -11 3 -20 10 -20 15 0 6 7 7 16 4 11 -4
15 -2 11 8 -3 8 2 17 11 21 15 6 15 8 -2 21 -19 14 -19 14 1 14 12 0 25 5 28
10 3 5 11 10 16 10 6 0 7 -4 4 -10 -8 -13 6 -13 25 0 13 9 13 11 0 20 -8 5
-23 10 -32 10 -26 0 -32 2 -45 16 -19 19 -17 20 28 16 38 -4 41 -3 34 17 -6
19 -3 20 27 14 18 -3 41 -10 51 -15 10 -5 21 -7 24 -5 3 3 -10 13 -29 23 l-33
17 28 9 c15 6 27 14 27 19 0 4 8 6 18 2 15 -5 15 -4 -2 9 -18 14 -18 15 0 36
10 12 25 22 32 22 9 0 7 8 -7 26 -28 35 -26 44 7 44 23 0 28 4 28 23 -1 16 4
21 18 19 18 -3 18 -2 5 14 -7 10 -42 51 -76 92 -68 82 -113 161 -143 248 -27
78 -15 166 29 206 30 27 119 58 167 58 44 0 111 -38 135 -76 37 -61 75 -147
98 -224 42 -138 91 -208 91 -129 0 41 16 36 25 -8 l7 -37 18 39 c12 26 20 35
24 25 12 -39 16 -42 11 -11 -4 29 -2 33 13 29 17 -5 18 -1 10 41 -4 25 -13 59
-18 75 -32 93 10 210 92 255 45 25 48 25 75 9 15 -9 42 -38 58 -64 l30 -48 0
-175 c1 -97 2 -182 3 -190 4 -26 33 11 73 94 39 82 118 209 125 202 2 -2 -23
-48 -56 -103 -33 -54 -69 -121 -79 -149 -11 -27 -23 -59 -27 -69 -5 -14 -4
-17 5 -12 13 8 71 -14 71 -27 0 -5 10 -6 23 -2 20 6 21 5 5 -8 -24 -19 -23
-30 1 -18 10 6 22 7 26 3 5 -4 5 -2 2 4 -6 10 40 37 63 39 3 0 31 13 63 27 32
15 65 24 74 21 11 -4 14 -3 9 5 -7 11 6 17 28 13 7 -2 61 20 89 36 4 2 7 2 7
-1 0 -9 -179 -97 -250 -122 -35 -13 -76 -35 -89 -49 -30 -29 -40 -26 109 -29
103 -1 129 -11 255 -91 30 -19 57 -35 60 -35 3 0 5 207 5 460 l0 460 -109 0
c-61 0 -113 -4 -116 -10 -3 -5 -25 -14 -48 -21 -23 -6 -51 -19 -63 -30 -11
-11 -42 -21 -70 -25 -27 -3 -68 -10 -91 -16 -37 -9 -46 -8 -77 11 -22 14 -39
35 -46 56 l-12 35 -604 0 -604 0 0 -775z"/>
<path d="M1427 1023 c-22 -6 -12 -23 13 -23 19 0 36 -30 22 -39 -16 -10 6 -51
26 -51 11 0 25 -7 32 -15 7 -8 9 -15 4 -15 -4 0 -3 -5 2 -10 7 -7 26 -5 58 6
61 21 125 15 199 -19 l57 -26 0 24 c0 20 -17 36 -83 80 -101 67 -177 95 -254
94 -32 -1 -66 -3 -76 -6z"/>
<path d="M1233 873 c-18 -6 -16 -78 2 -93 20 -17 65 2 64 27 0 16 -2 15 -9 -2
-9 -21 -9 -21 -16 13 -2 12 0 22 6 22 5 0 7 6 4 14 -6 16 -32 25 -51 19z"/>
<path d="M1625 863 c-32 -8 -40 -22 -19 -30 29 -11 147 -93 133 -93 -6 0 -34
14 -61 30 -55 34 -86 40 -48 9 21 -17 22 -19 3 -10 -28 14 -33 14 -33 -2 0
-21 80 -38 160 -35 l75 3 3 38 c3 37 2 38 -51 61 -56 25 -128 38 -162 29z"/>
<path d="M487 849 c7 -7 15 -10 18 -7 3 3 -2 9 -12 12 -14 6 -15 5 -6 -5z"/>
<path d="M697 822 c-10 -10 -17 -33 -17 -50 0 -25 4 -32 20 -32 21 0 40 50 32
83 -6 22 -15 22 -35 -1z"/>
<path d="M1660 700 c-10 -7 8 -10 60 -9 51 0 69 3 55 9 -27 12 -97 12 -115 0z"/>
<path d="M1760 670 c-36 -4 -69 -5 -74 -2 -5 2 -6 -1 -3 -9 3 -8 11 -30 18
-50 12 -38 42 -60 82 -58 24 1 18 4 -26 13 -20 5 -33 17 -43 42 -8 20 -13 38
-11 40 2 2 32 7 66 10 34 4 64 11 67 15 3 5 2 8 -3 8 -4 -1 -37 -5 -73 -9z"/>
<path d="M1801 617 c-13 -21 -12 -21 5 -5 10 10 16 20 13 22 -3 3 -11 -5 -18
-17z"/>
<path d="M950 612 c0 -7 -3 -11 -7 -9 -5 3 -15 -2 -23 -11 -13 -14 -13 -15 1
-10 9 4 16 1 16 -6 0 -7 -10 -12 -21 -10 -12 1 -35 -7 -52 -17 -17 -11 -38
-19 -46 -19 -8 0 -32 -11 -53 -25 -24 -17 -41 -23 -49 -17 -7 6 -36 -4 -81
-29 -38 -21 -63 -39 -55 -39 9 0 2 -12 -20 -31 -19 -17 -28 -27 -20 -23 8 4
25 16 38 28 18 16 25 17 31 8 6 -10 10 -10 20 1 9 12 8 16 -6 22 -15 5 -9 11
27 30 25 13 54 21 65 19 12 -3 32 3 45 14 14 10 46 25 73 33 26 7 47 17 47 22
0 5 7 4 15 -3 13 -11 2 -17 -67 -42 -46 -16 -95 -31 -109 -33 -28 -3 -83 -34
-75 -42 2 -3 15 1 28 8 21 11 22 11 9 -4 -7 -10 -19 -17 -25 -17 -7 0 -23 -11
-36 -25 -13 -14 -20 -25 -15 -25 5 0 4 -5 -3 -12 -24 -24 -11 -31 15 -7 15 13
9 3 -12 -22 -22 -26 -49 -62 -59 -80 -19 -34 -19 -34 1 -16 25 22 35 13 22
-20 -5 -14 -7 -28 -5 -31 9 -8 -25 -65 -73 -122 l-45 -55 43 40 c23 22 56 65
72 95 21 40 27 47 23 25 -8 -35 -32 -87 -59 -130 -11 -16 -15 -26 -8 -22 6 4
26 28 43 55 21 30 29 38 25 22 l-7 -25 26 24 c33 31 33 25 1 -19 -14 -19 -25
-40 -25 -47 0 -10 78 -13 404 -13 346 0 405 2 409 15 4 8 2 17 -3 20 -6 4 -10
0 -10 -7 -1 -7 -8 0 -16 15 -9 16 -13 31 -10 34 3 3 8 -2 12 -11 3 -9 10 -16
15 -16 4 0 2 12 -6 27 -18 38 -33 110 -25 120 13 15 20 72 9 79 -6 3 -9 15 -6
25 3 12 1 17 -5 13 -6 -4 -9 -1 -6 7 5 14 -60 76 -75 71 -4 -1 -6 2 -2 8 3 5
1 10 -5 10 -6 0 -8 5 -5 10 3 6 -2 13 -12 17 -10 4 -27 16 -39 29 -24 25 -57
44 -76 44 -9 0 -9 -3 2 -10 13 -8 12 -10 -2 -10 -21 0 -24 20 -6 38 8 8 8 12
1 12 -6 0 -16 -7 -23 -15 -7 -8 -17 -15 -22 -15 -6 0 -4 8 3 17 12 15 12 16
-7 11 -28 -7 -26 22 2 33 18 7 18 8 -1 8 -12 1 -26 -4 -33 -11 -7 -7 -12 -8
-12 -2 0 6 5 15 10 20 7 7 3 14 -15 22 -19 9 -27 9 -37 -2 -11 -11 -15 -11
-25 3 -9 11 -12 12 -13 3z m-14 -79 c-7 -7 -26 7 -26 19 0 6 6 6 15 -2 9 -7
13 -15 11 -17z m-131 -63 c-3 -5 -12 -10 -18 -10 -7 0 -6 4 3 10 19 12 23 12
15 0z m-45 -25 c-7 -8 -20 -15 -29 -15 -11 1 -8 5 9 15 32 18 35 18 20 0z
m100 10 c0 -2 -10 -9 -22 -15 -22 -11 -22 -10 -4 4 21 17 26 19 26 11z m-245
-35 c3 -6 -1 -7 -9 -4 -18 7 -21 14 -7 14 6 0 13 -4 16 -10z m130 -40 c-10
-11 -23 -20 -28 -20 -6 0 0 9 13 20 13 11 25 20 28 20 3 0 -3 -9 -13 -20z m65
17 c0 -2 -10 -12 -22 -23 l-23 -19 19 23 c18 21 26 27 26 19z m-130 -21 c0 -2
-8 -10 -17 -17 -16 -13 -17 -12 -4 4 13 16 21 21 21 13z m667 -261 l3 -30 -15
34 c-8 18 -15 41 -15 50 1 27 24 -19 27 -54z"/>
<path d="M1795 580 c-3 -5 -1 -10 4 -10 6 0 11 5 11 10 0 6 -2 10 -4 10 -3 0
-8 -4 -11 -10z"/>
<path d="M736 544 c-27 -7 -54 -18 -60 -24 -6 -6 10 -4 36 4 26 7 49 11 52 9
3 -3 12 2 21 11 19 18 18 18 -49 0z"/>
<path d="M1737 529 c7 -7 15 -10 18 -7 3 3 -2 9 -12 12 -14 6 -15 5 -6 -5z"/>
<path d="M1175 510 c17 -11 35 -20 40 -20 6 0 -3 9 -20 20 -16 11 -34 20 -40
20 -5 0 4 -9 20 -20z"/>
<path d="M1785 500 c3 -5 11 -10 16 -10 6 0 7 5 4 10 -3 6 -11 10 -16 10 -6 0
-7 -4 -4 -10z"/>
<path d="M1260 464 c17 -15 33 -24 36 -21 6 6 -45 47 -58 47 -5 0 5 -12 22
-26z"/>
<path d="M1724 475 c11 -8 25 -15 32 -15 7 0 18 -8 24 -17 10 -17 11 -17 8 1
-2 12 -17 24 -43 32 -36 12 -38 12 -21 -1z"/>
<path d="M356 432 c-3 -5 -20 -9 -37 -10 -43 -1 -88 -44 -81 -78 5 -25 41 -42
63 -28 8 4 9 3 5 -4 -5 -8 -2 -10 9 -6 9 4 14 9 11 11 -3 3 6 21 21 39 18 24
21 34 11 34 -8 0 -19 -5 -26 -12 -7 -7 -12 -8 -12 -2 0 5 14 21 32 36 18 15
28 28 21 28 -6 0 -14 -4 -17 -8z"/>
<path d="M1300 415 c0 -8 4 -15 10 -15 5 0 7 7 4 15 -4 8 -8 15 -10 15 -2 0
-4 -7 -4 -15z"/>
<path d="M566 349 c-19 -23 -34 -49 -33 -59 1 -10 5 -16 9 -14 5 3 6 10 3 15
-4 5 2 9 11 9 10 0 14 3 11 7 -4 3 3 17 15 30 12 13 18 23 14 23 -5 0 -3 7 4
15 7 8 10 15 7 15 -3 0 -21 -18 -41 -41z"/>
<path d="M1325 380 c3 -5 8 -10 11 -10 2 0 4 5 4 10 0 6 -5 10 -11 10 -5 0 -7
-4 -4 -10z"/>
<path d="M299 273 c-13 -15 -12 -15 9 -4 23 12 28 21 13 21 -5 0 -15 -7 -22
-17z"/>
<path d="M527 183 c-13 -22 -37 -87 -28 -78 10 11 42 85 36 85 -2 0 -6 -3 -8
-7z"/>
<path d="M563 38 c-15 -20 -25 -38 -20 -38 3 0 12 11 21 25 17 26 16 35 -1 13z"/>
</g>
</svg>
